<?xml version="1.0" standalone="no"?>
<svg viewBox="0 0 200 200" xmlns="http://www.w3.org/2000/svg">
  <path fill="#00CBA9" d="M27.9,-43C38.2,-42.3,50.1,-39.1,55.8,-31.5C61.5,-23.8,61.1,-11.9,61,0C61,11.9,61.3,23.7,54.9,30.2C48.6,36.7,35.5,37.8,25.3,40.1C15,42.4,7.5,45.8,-2.5,50C-12.4,54.3,-24.8,59.4,-38.3,59C-51.8,58.6,-66.3,52.6,-76,41.9C-85.6,31.1,-90.4,15.6,-88.1,1.3C-85.8,-12.9,-76.3,-25.8,-66.4,-36.1C-56.5,-46.4,-46.1,-54.2,-35,-54.4C-23.8,-54.6,-11.9,-47.2,-1.6,-44.5C8.8,-41.7,17.6,-43.7,27.9,-43Z" transform="translate(100 100)" />
</svg>
