<?xml version="1.0" standalone="no"?>
<svg viewBox="0 0 200 200" xmlns="http://www.w3.org/2000/svg">
  <path fill="#00CBA9" d="M29.5,-55.3C36.1,-47.4,37.6,-35,40.9,-25.1C44.2,-15.1,49.3,-7.5,45.3,-2.3C41.4,3,28.5,6,23.7,13.4C18.9,20.8,22.3,32.7,19.7,44.1C17.1,55.5,8.6,66.5,-2.6,71C-13.7,75.4,-27.5,73.4,-36.4,65.6C-45.3,57.9,-49.3,44.4,-57.1,32.5C-64.9,20.6,-76.4,10.3,-73,2C-69.6,-6.4,-51.3,-12.7,-37.2,-13.7C-23.1,-14.6,-13.2,-10.1,-7.7,-18.7C-2.2,-27.2,-1.1,-48.8,5.2,-57.8C11.5,-66.8,23,-63.3,29.5,-55.3Z" transform="translate(100 100)" />
</svg>
