<svg id="visual" viewBox="0 0 900 600" width="900" height="600" xmlns="http://www.w3.org/2000/svg" xmlns:xlink="http://www.w3.org/1999/xlink" version="1.1" preserveAspectRatio="none"><path d="M0 81L30 84C60 87 120 93 180 87.7C240 82.3 300 65.7 360 60.3C420 55 480 61 540 64.5C600 68 660 69 720 60.8C780 52.7 840 35.3 870 26.7L900 18L900 0L870 0C840 0 780 0 720 0C660 0 600 0 540 0C480 0 420 0 360 0C300 0 240 0 180 0C120 0 60 0 30 0L0 0Z" fill="#00CBA9" stroke-linecap="round" stroke-linejoin="miter"></path></svg>