<?xml version="1.0" standalone="no"?><svg xmlns="http://www.w3.org/2000/svg" viewBox="0 0 1440 320" preserveAspectRatio="none"><path fill="#00cba9" fill-opacity="1" d="M0,224L40,213.3C80,203,160,181,240,181.3C320,181,400,203,480,208C560,213,640,203,720,218.7C800,235,880,277,960,256C1040,235,1120,149,1200,106.7C1280,64,1360,64,1400,64L1440,64L1440,320L1400,320C1360,320,1280,320,1200,320C1120,320,1040,320,960,320C880,320,800,320,720,320C640,320,560,320,480,320C400,320,320,320,240,320C160,320,80,320,40,320L0,320Z"></path></svg>