<svg id="visual" viewBox="0 0 900 450" width="900" height="450" xmlns="http://www.w3.org/2000/svg" xmlns:xlink="http://www.w3.org/1999/xlink" version="1.1" preserveAspectRatio="none"><path d="M0 344L30 350.5C60 357 120 370 180 337.2C240 304.3 300 225.7 360 218.3C420 211 480 275 540 290.5C600 306 660 273 720 270.8C780 268.7 840 297.3 870 311.7L900 326L900 451L870 451C840 451 780 451 720 451C660 451 600 451 540 451C480 451 420 451 360 451C300 451 240 451 180 451C120 451 60 451 30 451L0 451Z" fill="#00CBA9" stroke-linecap="round" stroke-linejoin="miter"></path></svg>